<svg xmlns="http://www.w3.org/2000/svg" viewBox="0 0 64 64" width="64" height="64">
  <defs>
    <linearGradient id="brandGrad" x1="0%" y1="0%" x2="100%" y2="100%">
      <stop offset="0%" stop-color="#6366f1"/>
      <stop offset="100%" stop-color="#ec4899"/>
    </linearGradient>
    <filter id="shadow" x="-10%" y="-10%" width="120%" height="120%">
      <feDropShadow dx="0" dy="2" stdDeviation="2" flood-opacity="0.2"/>
    </filter>
  </defs>
  
  <!-- Rounded Gradient Background -->
  <rect width="64" height="64" rx="16" fill="url(#brandGrad)" />
  
  <!-- Bag with Heart Icon (bi-bag-heart-fill scaled & centered) -->
  <g transform="translate(14, 14) scale(2.25)" fill="#ffffff" filter="url(#shadow)">
    <path d="M11.5 4v-.5a3.5 3.5 0 1 0-7 0V4H1v10a2 2 0 0 0 2 2h10a2 2 0 0 0 2-2V4zM8 1a2.5 2.5 0 0 1 2.5 2.5V4h-5v-.5A2.5 2.5 0 0 1 8 1m0 6.993c1.664-1.711 5.825 1.283 0 5.132-5.825-3.85-1.664-6.843 0-5.132"/>
  </g>
</svg>
